<svg width="147" height="24" viewBox="0 0 147 24" fill="none" xmlns="http://www.w3.org/2000/svg">
<path d="M29.3547 8.032V11.76H33.4187V12.96H29.3547V16.8H33.8987V18H27.8987V6.832H33.8987V8.032H29.3547ZM40.3739 9.072C41.4405 9.072 42.3045 9.39733 42.9659 10.048C43.6272 10.688 43.9579 11.616 43.9579 12.832V18H42.5179V13.04C42.5179 12.1653 42.2992 11.4987 41.8619 11.04C41.4245 10.5707 40.8272 10.336 40.0699 10.336C39.3019 10.336 38.6885 10.576 38.2299 11.056C37.7819 11.536 37.5579 12.2347 37.5579 13.152V18H36.1019V9.232H37.5579V10.48C37.8459 10.032 38.2352 9.68533 38.7259 9.44C39.2272 9.19467 39.7765 9.072 40.3739 9.072ZM48.1122 10.432V15.6C48.1122 16.0267 48.2029 16.3307 48.3842 16.512C48.5656 16.6827 48.8802 16.768 49.3282 16.768H50.4002V18H49.0882C48.2776 18 47.6696 17.8133 47.2642 17.44C46.8589 17.0667 46.6562 16.4533 46.6562 15.6V10.432H45.5202V9.232H46.6562V7.024H48.1122V9.232H50.4002V10.432H48.1122ZM60.1644 13.28C60.1644 13.5573 60.1484 13.8507 60.1164 14.16H53.1084C53.1617 15.024 53.455 15.7013 53.9884 16.192C54.5324 16.672 55.1884 16.912 55.9564 16.912C56.5857 16.912 57.1084 16.768 57.5244 16.48C57.951 16.1813 58.2497 15.7867 58.4204 15.296H59.9884C59.7537 16.1387 59.2844 16.8267 58.5804 17.36C57.8764 17.8827 57.0017 18.144 55.9564 18.144C55.1244 18.144 54.3777 17.9573 53.7164 17.584C53.0657 17.2107 52.5537 16.6827 52.1804 16C51.807 15.3067 51.6204 14.5067 51.6204 13.6C51.6204 12.6933 51.8017 11.8987 52.1644 11.216C52.527 10.5333 53.0337 10.0107 53.6844 9.648C54.3457 9.27467 55.103 9.088 55.9564 9.088C56.7884 9.088 57.5244 9.26933 58.1644 9.632C58.8044 9.99467 59.295 10.496 59.6364 11.136C59.9884 11.7653 60.1644 12.48 60.1644 13.28ZM58.6604 12.976C58.6604 12.4213 58.5377 11.9467 58.2924 11.552C58.047 11.1467 57.711 10.8427 57.2844 10.64C56.8684 10.4267 56.4044 10.32 55.8924 10.32C55.1564 10.32 54.527 10.5547 54.0044 11.024C53.4924 11.4933 53.199 12.144 53.1244 12.976H58.6604ZM63.5422 10.656C63.7982 10.1547 64.1609 9.76533 64.6302 9.488C65.1102 9.21067 65.6916 9.072 66.3742 9.072V10.576H65.9902C64.3582 10.576 63.5422 11.4613 63.5422 13.232V18H62.0862V9.232H63.5422V10.656ZM79.8726 9.232L74.5926 22.128H73.0886L74.8166 17.904L71.2806 9.232H72.8966L75.6486 16.336L78.3686 9.232H79.8726ZM85.1602 18.144C84.3389 18.144 83.5922 17.9573 82.9202 17.584C82.2589 17.2107 81.7362 16.6827 81.3522 16C80.9789 15.3067 80.7922 14.5067 80.7922 13.6C80.7922 12.704 80.9842 11.9147 81.3682 11.232C81.7629 10.5387 82.2962 10.0107 82.9682 9.648C83.6402 9.27467 84.3922 9.088 85.2242 9.088C86.0562 9.088 86.8082 9.27467 87.4802 9.648C88.1522 10.0107 88.6802 10.5333 89.0642 11.216C89.4589 11.8987 89.6562 12.6933 89.6562 13.6C89.6562 14.5067 89.4536 15.3067 89.0482 16C88.6536 16.6827 88.1149 17.2107 87.4322 17.584C86.7496 17.9573 85.9922 18.144 85.1602 18.144ZM85.1602 16.864C85.6829 16.864 86.1736 16.7413 86.6322 16.496C87.0909 16.2507 87.4589 15.8827 87.7362 15.392C88.0242 14.9013 88.1682 14.304 88.1682 13.6C88.1682 12.896 88.0296 12.2987 87.7522 11.808C87.4749 11.3173 87.1122 10.9547 86.6642 10.72C86.2162 10.4747 85.7309 10.352 85.2082 10.352C84.6749 10.352 84.1842 10.4747 83.7362 10.72C83.2989 10.9547 82.9469 11.3173 82.6802 11.808C82.4136 12.2987 82.2802 12.896 82.2802 13.6C82.2802 14.3147 82.4082 14.9173 82.6642 15.408C82.9309 15.8987 83.2829 16.2667 83.7202 16.512C84.1576 16.7467 84.6376 16.864 85.1602 16.864ZM99.3466 9.232V18H97.8906V16.704C97.6133 17.152 97.224 17.504 96.7226 17.76C96.232 18.0053 95.688 18.128 95.0906 18.128C94.408 18.128 93.7946 17.9893 93.2506 17.712C92.7066 17.424 92.2746 16.9973 91.9546 16.432C91.6453 15.8667 91.4906 15.1787 91.4906 14.368V9.232H92.9306V14.176C92.9306 15.04 93.1493 15.7067 93.5866 16.176C94.024 16.6347 94.6213 16.864 95.3786 16.864C96.1573 16.864 96.7706 16.624 97.2186 16.144C97.6666 15.664 97.8906 14.9653 97.8906 14.048V9.232H99.3466ZM103.261 10.656C103.517 10.1547 103.88 9.76533 104.349 9.488C104.829 9.21067 105.41 9.072 106.093 9.072V10.576H105.709C104.077 10.576 103.261 11.4613 103.261 13.232V18H101.805V9.232H103.261V10.656ZM122.583 9.072C123.266 9.072 123.874 9.216 124.407 9.504C124.941 9.78133 125.362 10.2027 125.671 10.768C125.981 11.3333 126.135 12.0213 126.135 12.832V18H124.695V13.04C124.695 12.1653 124.477 11.4987 124.039 11.04C123.613 10.5707 123.031 10.336 122.295 10.336C121.538 10.336 120.935 10.5813 120.487 11.072C120.039 11.552 119.815 12.2507 119.815 13.168V18H118.375V13.04C118.375 12.1653 118.157 11.4987 117.719 11.04C117.293 10.5707 116.711 10.336 115.975 10.336C115.218 10.336 114.615 10.5813 114.167 11.072C113.719 11.552 113.495 12.2507 113.495 13.168V18H112.039V9.232H113.495V10.496C113.783 10.0373 114.167 9.68533 114.647 9.44C115.138 9.19467 115.677 9.072 116.263 9.072C116.999 9.072 117.65 9.23733 118.215 9.568C118.781 9.89867 119.202 10.384 119.479 11.024C119.725 10.4053 120.13 9.92533 120.695 9.584C121.261 9.24267 121.89 9.072 122.583 9.072ZM127.98 13.584C127.98 12.688 128.161 11.904 128.524 11.232C128.886 10.5493 129.382 10.0213 130.012 9.648C130.652 9.27467 131.361 9.088 132.14 9.088C132.908 9.088 133.574 9.25333 134.14 9.584C134.705 9.91467 135.126 10.3307 135.404 10.832V9.232H136.876V18H135.404V16.368C135.116 16.88 134.684 17.3067 134.108 17.648C133.542 17.9787 132.881 18.144 132.124 18.144C131.345 18.144 130.641 17.952 130.012 17.568C129.382 17.184 128.886 16.6453 128.524 15.952C128.161 15.2587 127.98 14.4693 127.98 13.584ZM135.404 13.6C135.404 12.9387 135.27 12.3627 135.004 11.872C134.737 11.3813 134.374 11.008 133.916 10.752C133.468 10.4853 132.972 10.352 132.428 10.352C131.884 10.352 131.388 10.48 130.94 10.736C130.492 10.992 130.134 11.3653 129.868 11.856C129.601 12.3467 129.468 12.9227 129.468 13.584C129.468 14.256 129.601 14.8427 129.868 15.344C130.134 15.8347 130.492 16.2133 130.94 16.48C131.388 16.736 131.884 16.864 132.428 16.864C132.972 16.864 133.468 16.736 133.916 16.48C134.374 16.2133 134.737 15.8347 135.004 15.344C135.27 14.8427 135.404 14.2613 135.404 13.6ZM140.088 7.808C139.811 7.808 139.576 7.712 139.384 7.52C139.192 7.328 139.096 7.09333 139.096 6.816C139.096 6.53867 139.192 6.304 139.384 6.112C139.576 5.92 139.811 5.824 140.088 5.824C140.355 5.824 140.579 5.92 140.76 6.112C140.952 6.304 141.048 6.53867 141.048 6.816C141.048 7.09333 140.952 7.328 140.76 7.52C140.579 7.712 140.355 7.808 140.088 7.808ZM140.792 9.232V18H139.336V9.232H140.792ZM144.73 6.16V18H143.274V6.16H144.73Z" fill="#999999"/>
<path d="M3.55566 9.33301L8.289 12.883C8.64455 13.1497 9.13344 13.1497 9.489 12.883L14.2223 9.33301" stroke="#999999" stroke-linecap="round"/>
<rect x="0.5" y="4.5" width="17.6667" height="15" rx="4.5" stroke="#999999"/>
</svg>
